# xmcd CD database file
#
# Track frame offsets:
#	150
#	9929
#	27337
#	37371
#	50582
#	61804
#	76179
#	94429
#	113356
#	150106
#	170330
#	191703
#	222117
#
# Disc length: 3113 seconds
#
# Revision: 0
# Processed by: cddbd v1.5.2PL0 Copyright (c) Steve Scherf et al.
# Submitted via: CDex 1.51
#
DISCID=9c0c270d
DTITLE=Charles Lazarus - Solo Settings
DYEAR=1900
DGENRE=Jazz
TTITLE0=Kilauea's Fountains
TTITLE1=Waves
TTITLE2=Proclamtion for Justice
TTITLE3=Soldier's Silent Reverie
TTITLE4=Deja Fu
TTITLE5=Proclamation for Amnesty
TTITLE6=Dance Honu
TTITLE7=Chorado
TTITLE8=Madame Fu's Spirit Dance
TTITLE9=Java
TTITLE10=Deal
TTITLE11=Mirrors
TTITLE12=Postlude for the Rights of All
EXTD=
EXTT0=
EXTT1=
EXTT2=
EXTT3=
EXTT4=
EXTT5=
EXTT6=
EXTT7=
EXTT8=
EXTT9=
EXTT10=
EXTT11=
EXTT12=
PLAYORDER=
